<svg xmlns="http://www.w3.org/2000/svg" xmlns:xlink="http://www.w3.org/1999/xlink" viewBox="0 0 75.54 75.54"><defs><style>.cls-1{fill:none;}.cls-2{fill:#4b89c8;}.cls-3{fill:#231f20;}.cls-4{fill:#fff;}.cls-5{clip-path:url(#clip-path);}.cls-6{fill:#bcbec0;}</style><clipPath id="clip-path"><circle class="cls-1" cx="37.77" cy="37.77" r="22.83"/></clipPath></defs><title>Asset 1</title><g id="Layer_2" data-name="Layer 2"><g id="Layer_1-2" data-name="Layer 1"><circle class="cls-2" cx="37.77" cy="37.77" r="37.16"/><path class="cls-3" d="M37.77,75.54A37.77,37.77,0,1,1,75.54,37.77,37.81,37.81,0,0,1,37.77,75.54Zm0-74.32A36.56,36.56,0,1,0,74.32,37.77,36.6,36.6,0,0,0,37.77,1.22Z"/><circle class="cls-4" cx="37.77" cy="37.77" r="23.45"/><path class="cls-3" d="M37.77,61.83A24.06,24.06,0,1,1,61.83,37.77,24.08,24.08,0,0,1,37.77,61.83Zm0-46.9A22.85,22.85,0,1,0,60.62,37.77,22.87,22.87,0,0,0,37.77,14.93Z"/><g class="cls-5"><path class="cls-3" d="M30.43,61.73H26.24a.61.61,0,0,1-.61-.61V48.67a.61.61,0,0,1,.61-.61h4.19a.61.61,0,0,1,.61.61V61.12A.61.61,0,0,1,30.43,61.73Zm-3.59-1.22h3V49.28h-3Z"/><path class="cls-3" d="M39.89,61.73h-4.2a.61.61,0,0,1-.61-.61V54.05a.61.61,0,0,1,.61-.61h4.2a.61.61,0,0,1,.61.61v7.07A.61.61,0,0,1,39.89,61.73ZM36.3,60.51h3V54.65h-3Z"/><path class="cls-3" d="M26.24,61.73H22a.61.61,0,0,1-.61-.61V54.05a.61.61,0,0,1,.61-.61h4.2a.6.6,0,0,1,.6.61v7.07A.6.6,0,0,1,26.24,61.73Zm-3.59-1.22h3V54.65h-3Z"/><path class="cls-3" d="M49.31,61.73H46.4a.61.61,0,0,1-.61-.61v-13a.61.61,0,0,1,.61-.61h2.91a.61.61,0,0,1,.61.61v13A.61.61,0,0,1,49.31,61.73ZM47,60.51h1.7V48.76H47Z"/><path class="cls-3" d="M52.22,61.73H49.31a.61.61,0,0,1-.61-.61V52.05a.61.61,0,0,1,.61-.61h2.91a.61.61,0,0,1,.61.61v9.07A.61.61,0,0,1,52.22,61.73Zm-2.3-1.22h1.69V52.66H49.92Z"/><path class="cls-3" d="M44.87,61.73h-5a.61.61,0,0,1-.61-.61v-3a.61.61,0,0,1,.61-.61h5a.61.61,0,0,1,.61.61v3A.61.61,0,0,1,44.87,61.73ZM40.5,60.51h3.76V58.72H40.5Z"/><path class="cls-3" d="M32.94,61.73H30.43a.61.61,0,0,1-.61-.61V56.89a.6.6,0,0,1,.61-.6h2.51a.61.61,0,0,1,.61.6v4.23A.61.61,0,0,1,32.94,61.73ZM31,60.51h1.29v-3H31Z"/><path class="cls-6" d="M33.77,26.31h-3.9a1.86,1.86,0,0,1-.93-3.47,2.3,2.3,0,0,1,2.27-2,2.27,2.27,0,0,1,1.86,1,2.38,2.38,0,0,1,.7-.11,2.3,2.3,0,0,1,0,4.59Zm-2.56-4.22a1.07,1.07,0,0,0-1.07,1.07v.05l0,.49-.48.13a.65.65,0,0,0-.47.62.64.64,0,0,0,.64.64h3.9a1.08,1.08,0,0,0,0-2.15,1.09,1.09,0,0,0-.62.2l-.67.47-.26-.78A1.06,1.06,0,0,0,31.21,22.09Z"/><path class="cls-6" d="M17.31,43h-3.9a1.86,1.86,0,0,1-.93-3.47,2.3,2.3,0,0,1,2.27-2,2.27,2.27,0,0,1,1.86,1,2.05,2.05,0,0,1,.7-.11,2.29,2.29,0,0,1,0,4.58ZM13.68,39.8a.21.21,0,0,0,0,.06l0,.48-.47.13a.64.64,0,0,0,.17,1.26h3.9a1.08,1.08,0,0,0,0-2.15,1.09,1.09,0,0,0-.62.2l-.67.48-.26-.79a1.06,1.06,0,0,0-1-.74,1.07,1.07,0,0,0-1.07,1.08Z"/><path class="cls-6" d="M60.37,38.87h-3.9A1.86,1.86,0,0,1,54.61,37a1.88,1.88,0,0,1,.93-1.61,2.29,2.29,0,0,1,4.13-1,2.38,2.38,0,0,1,.7-.11,2.29,2.29,0,1,1,0,4.58Zm-3.63-3.14a.12.12,0,0,1,0,.05l0,.49-.47.13a.64.64,0,0,0,.17,1.25h3.9a1.07,1.07,0,1,0,0-2.14,1.1,1.1,0,0,0-.61.19l-.68.48-.25-.78a1.07,1.07,0,0,0-2.09.33Z"/></g><path class="cls-3" d="M42.59,32.24H36.44a.82.82,0,0,0,0,1.64h1.82A6.57,6.57,0,0,0,36.09,38H33.57a.82.82,0,1,0,0,1.64h2.52a6.52,6.52,0,0,0,2.17,4.1H31.52a.82.82,0,0,0,0,1.64H42.59a6.56,6.56,0,0,0,0-13.12Zm0,11.48a4.92,4.92,0,0,1-4.85-4.1h4a.82.82,0,1,0,0-1.64h-4a4.92,4.92,0,1,1,4.85,5.74Z"/><path class="cls-3" d="M34,33.88a.82.82,0,1,0,0-1.64h-2a.82.82,0,1,0,0,1.64Z"/><path class="cls-3" d="M31.83,38.8A.82.82,0,0,0,31,38H25.69a.82.82,0,1,0,0,1.64H31A.81.81,0,0,0,31.83,38.8Z"/><path class="cls-3" d="M50.79,29H31.11a.82.82,0,0,0,0,1.64H50.79a.82.82,0,1,0,0-1.64Z"/><path class="cls-3" d="M29.06,29.78a.82.82,0,0,0-.82-.82H22.91a.82.82,0,0,0,0,1.64h5.33A.81.81,0,0,0,29.06,29.78Z"/><path class="cls-4" d="M12.71,29.14l-5,1,4.36,1.29c.21.07.25.35.18.6s-.27.47-.48.41L5.5,30.57c-.23-.07-.25-.35-.18-.6s.29-.5.8-.59l4.73-.89L6.49,27.2c-.22-.07-.24-.36-.17-.6s.25-.48.47-.41l6.28,1.86c.22.07.26.35.19.61A.7.7,0,0,1,12.71,29.14Z"/><path class="cls-4" d="M11.12,23.68l.76-1.32a.42.42,0,0,1,.72.41l-.75,1.32,2,1.13,1.46-2.56c.1-.19.36-.19.58-.07a.41.41,0,0,1,.23.53l-1.74,3.06c-.12.2-.34.35-.54.24L8.13,23.19a.42.42,0,0,1-.08-.58L9.8,19.55c.11-.21.37-.19.56-.08s.35.35.24.54L9.15,22.56Z"/><path class="cls-4" d="M20.36,17.84a.67.67,0,0,1-.21.73c-.2.2-.5.34-.71.22l-2.66-1.56,1.6,2.63c.13.21,0,.51-.2.72a.64.64,0,0,1-.72.23l-6-3.08a.21.21,0,0,1-.08-.06c-.18-.18-.06-.55.15-.77a.36.36,0,0,1,.41-.11l5.17,2.79-1.91-3.11c-.12-.19,0-.41.15-.59a.49.49,0,0,1,.58-.16l3.16,1.84-2.9-5.1a.35.35,0,0,1,.1-.42c.21-.21.58-.34.76-.16a.13.13,0,0,1,.06.07Z"/><path class="cls-4" d="M24.8,11.89l-.07-.08L21.28,9.37a.35.35,0,0,1-.1-.12c-.11-.23.16-.56.41-.68a.37.37,0,0,1,.41.06l2.83,2.12.11-3.53a.36.36,0,0,1,.21-.36c.25-.12.66-.12.78.11a.31.31,0,0,1,0,.15l-.24,4.21a.52.52,0,0,0,0,.11l1.09,2.26c.1.2-.09.42-.32.53s-.53.12-.63-.08Z"/><path class="cls-4" d="M28.32,11.06l-.74-2.78a2,2,0,0,1,1.57-2.7,2,2,0,0,1,2.72,1.55l.75,2.79A2,2,0,0,1,31,12.62,2,2,0,0,1,28.32,11.06ZM30.86,7.4A1.18,1.18,0,1,0,28.59,8l.75,2.78c.22.84.74,1.13,1.45.94a1.1,1.1,0,0,0,.81-1.54Z"/><path class="cls-4" d="M33.87,5a.33.33,0,0,1,.32-.35l1.88-.11c1.25-.06,2.3.37,2.38,1.9a1.81,1.81,0,0,1-1.29,2l1.53,2.52a.31.31,0,0,1,0,.15c0,.27-.3.55-.6.57a.49.49,0,0,1-.43-.29L36.1,8.62l-1,.06.14,2.75c0,.23-.23.36-.5.38s-.52-.09-.53-.32Zm1.07.54.12,2.35,1.19-.07a1.06,1.06,0,0,0,1.16-1.24,1.06,1.06,0,0,0-1.29-1.11Z"/><path class="cls-4" d="M41.1,4.89c0-.23.31-.29.57-.25s.5.18.46.42l-.48,3,2.9-2.77a.31.31,0,0,1,.31-.1.66.66,0,0,1,.51.64.35.35,0,0,1-.11.19L43,8l1.68,3.75a.32.32,0,0,1,0,.19.62.62,0,0,1-.69.41.41.41,0,0,1-.34-.25l-1.5-3.34-.77.69-.33,2c0,.22-.31.3-.57.25s-.5-.2-.47-.42Z"/><path class="cls-4" d="M48.3,11.47l1.27-2.58a2,2,0,0,1,3-1,2,2,0,0,1,1,3l-1.27,2.58a2,2,0,0,1-3,1A2,2,0,0,1,48.3,11.47Zm4.31-1.07a1.18,1.18,0,1,0-2.1-1l-1.27,2.57a1.09,1.09,0,0,0,.48,1.67A1.11,1.11,0,0,0,51.34,13Z"/><path class="cls-4" d="M55,17.64l.92-5-2.81,3.57c-.14.18-.41.12-.62-.05s-.34-.41-.2-.59l4-5.15c.15-.19.42-.11.63.06s.35.45.25.95l-.92,4.73,2.81-3.57c.14-.19.42-.1.62.06s.35.4.2.59l-4,5.15c-.14.17-.41.11-.62-.06A.69.69,0,0,1,55,17.64Z"/><path class="cls-4" d="M58.17,20.61l.08,0,6.4-2a.66.66,0,0,1,.67.35.64.64,0,0,1,.08.75l-4.18,5.24a.13.13,0,0,1-.06.07c-.2.14-.56-.06-.73-.3a.32.32,0,0,1,0-.42l.93-1.13-1.39-2-1.38.46a.34.34,0,0,1-.39-.18C58,21.16,58,20.76,58.17,20.61Zm3.73,1.85,2.23-2.73-3.35,1.1Z"/><path class="cls-4" d="M67.45,23.35c.22-.1.42.1.53.33s.13.52-.08.62L62,27.08c-.21.09-.42-.09-.54-.33s-.11-.53.1-.62Z"/><path class="cls-4" d="M68.89,26.62a.34.34,0,0,1,.42.24l.52,1.8c.34,1.2.16,2.32-1.31,2.75a1.82,1.82,0,0,1-2.27-.8l-2.12,2a.31.31,0,0,1-.13.08.66.66,0,0,1-.69-.46.49.49,0,0,1,.18-.49l2.32-2.17-.27-1-2.66.76c-.21.07-.4-.15-.47-.4s0-.53.19-.59Zm-.28,1.16-2.27.65.33,1.14a1.18,1.18,0,1,0,2.27-.65Z"/><path class="cls-4" d="M24.62,63.41a.45.45,0,0,1,.67-.27l1.53.7a.41.41,0,0,1,.23.63.42.42,0,0,1-.63.23l-1.11-.5-.33.73.87.39a.43.43,0,0,1,.23.64.42.42,0,0,1-.63.23l-.87-.4-.4.88,1.15.52c.32.14.41.35.27.65a.44.44,0,0,1-.66.22l-1.56-.71c-.4-.19-.41-.31-.24-.69Z"/><path class="cls-4" d="M28.88,65.49c-.23-.07-.4,0-.48.21s.23.47.53.75c.58.55,1,1,.75,1.71a1.51,1.51,0,0,1-2,1,1.94,1.94,0,0,1-1-.65A.53.53,0,0,1,26.6,68a.39.39,0,0,1,.58-.29.64.64,0,0,1,.3.2,1.15,1.15,0,0,0,.48.33c.32.09.64,0,.74-.31s-.05-.37-.44-.72-1.06-1-.82-1.75a1.38,1.38,0,0,1,1.74-.87,1.8,1.8,0,0,1,.89.64.58.58,0,0,1,.11.53.5.5,0,0,1-.6.33.59.59,0,0,1-.31-.25A.7.7,0,0,0,28.88,65.49Z"/><path class="cls-4" d="M31.7,66.34l-.53-.1a.48.48,0,1,1,.18-.94l2,.39a.43.43,0,0,1,.38.57.42.42,0,0,1-.56.37l-.54-.11L32,69.63c-.07.34-.25.47-.55.41a.44.44,0,0,1-.38-.59Z"/><path class="cls-4" d="M34.42,69.41a.52.52,0,0,1,.48.58.52.52,0,0,1-.58.47.53.53,0,1,1,.1-1Z"/><path class="cls-4" d="M39.44,66a1.31,1.31,0,0,1,1.45,1.16,2.17,2.17,0,0,1-.36,1.2l-.85,1.27,1-.06a.4.4,0,0,1,.48.43.41.41,0,0,1-.43.49l-1.76.11c-.37,0-.56-.11-.58-.42a.75.75,0,0,1,.11-.36l1.32-2a.83.83,0,0,0,.15-.52.4.4,0,0,0-.45-.33.41.41,0,0,0-.39.47.51.51,0,0,1-.43.55.53.53,0,0,1-.53-.51A1.36,1.36,0,0,1,39.44,66Z"/><path class="cls-4" d="M43.19,65.54c1.15-.23,1.78,1,2,2s0,2.36-1.08,2.58-1.8-1-2-2,0-2.38,1.09-2.6Zm1,2.2c-.1-.55-.42-1.35-.84-1.27s-.43,1-.34,1.49.42,1.31.86,1.23S44.31,68.21,44.21,67.74Z"/><path class="cls-4" d="M46.36,66a.92.92,0,0,1-.29.16.43.43,0,0,1-.56-.28.49.49,0,0,1,.23-.57l.76-.49A.42.42,0,0,1,47,65a.87.87,0,0,1,.16.33l1,3.17a.46.46,0,0,1-.31.61.45.45,0,0,1-.6-.32Z"/><path class="cls-4" d="M49.12,63.71a1.31,1.31,0,0,1,1.76.59A2.09,2.09,0,0,1,51,65.55c-.14.62-.2.83-.35,1.48l.88-.38a.4.4,0,0,1,.6.23.42.42,0,0,1-.23.62l-1.61.71c-.34.15-.57.08-.69-.2a.57.57,0,0,1,0-.37l.53-2.37a.89.89,0,0,0-.05-.54.39.39,0,0,0-.53-.16.42.42,0,0,0-.21.58.5.5,0,0,1-.21.66.51.51,0,0,1-.67-.3A1.36,1.36,0,0,1,49.12,63.71Z"/><path class="cls-4" d="M54.61,63.23a.59.59,0,0,1-.51-.29.6.6,0,0,1,.19-.83A28.15,28.15,0,0,0,66.85,44.49a.61.61,0,0,1,.73-.46.62.62,0,0,1,.46.73,29.37,29.37,0,0,1-13.1,18.38A.66.66,0,0,1,54.61,63.23Z"/><path class="cls-4" d="M19,63.23a.62.62,0,0,1-.38-.13A29.31,29.31,0,0,1,7.5,43.46.6.6,0,0,1,8,42.79a.61.61,0,0,1,.68.53A28.11,28.11,0,0,0,19.36,62.14a.61.61,0,0,1,.11.86A.62.62,0,0,1,19,63.23Z"/></g></g></svg>